<svg width="121" height="121" viewBox="0 0 121 121" fill="none" xmlns="http://www.w3.org/2000/svg">
<g clip-path="url(#clip0_1930_26)">
<path d="M100.445 104.304C99.8752 104.314 99.3093 104.203 98.7855 103.978C98.2616 103.753 97.7918 103.418 97.4074 102.997L87.8378 92.0302C87.4758 91.6539 87.1939 91.2081 87.0093 90.7197C86.8247 90.2313 86.7411 89.7105 86.7636 89.1889C86.7861 88.6673 86.9143 88.1556 87.1403 87.685C87.3664 87.2143 87.6856 86.7944 88.0787 86.4507C88.4717 86.1071 88.9304 85.8467 89.4271 85.6855C89.9237 85.5243 90.4478 85.4656 90.9678 85.5129C91.4878 85.5603 91.9928 85.7126 92.4521 85.9608C92.9115 86.209 93.3157 86.5478 93.6403 86.9568L103.331 97.9542C103.836 98.5166 104.163 99.2157 104.271 99.9635C104.379 100.711 104.263 101.474 103.939 102.157C103.614 102.839 103.094 103.409 102.446 103.797C101.797 104.184 101.048 104.371 100.293 104.334L100.445 104.304Z" fill="white"/>
<path d="M60.7086 120.739C60.2034 120.739 59.7031 120.639 59.2367 120.445C58.7703 120.251 58.347 119.966 57.9911 119.607C57.6353 119.249 57.354 118.823 57.1634 118.355C56.9728 117.887 56.8768 117.386 56.8808 116.881V101.691C56.8333 101.158 56.8974 100.62 57.069 100.113C57.2405 99.6056 57.5158 99.1396 57.8773 98.7445C58.2388 98.3494 58.6785 98.0339 59.1686 97.8181C59.6587 97.6022 60.1883 97.4907 60.7238 97.4907C61.2593 97.4907 61.789 97.6022 62.279 97.8181C62.7691 98.0339 63.2089 98.3494 63.5704 98.7445C63.9318 99.1396 64.2071 99.6056 64.3787 100.113C64.5503 100.62 64.6143 101.158 64.5669 101.691V116.881C64.5669 117.388 64.4671 117.889 64.2732 118.357C64.0793 118.825 63.7951 119.251 63.4368 119.609C63.0785 119.967 62.6532 120.251 62.1851 120.445C61.717 120.639 61.2153 120.739 60.7086 120.739Z" fill="white"/>
<path d="M21.0328 104.303C20.5253 104.307 20.0222 104.209 19.5528 104.016C19.0834 103.823 18.6571 103.539 18.2986 103.179C17.5807 102.457 17.1777 101.479 17.1777 100.46C17.1777 99.4417 17.5807 98.4643 18.2986 97.7415L29.2657 86.7744C30.0044 86.148 30.9516 85.8224 31.9193 85.8621C32.887 85.9019 33.8043 86.3041 34.4891 86.9889C35.1739 87.6738 35.5762 88.5911 35.6159 89.5588C35.6557 90.5264 35.33 91.4737 34.7037 92.2123L23.7366 103.179C23.3848 103.539 22.964 103.824 22.4994 104.017C22.0348 104.21 21.5359 104.308 21.0328 104.303V104.303Z" fill="white"/>
<path d="M19.6657 64.5363L4.47578 64.5363C3.45252 64.5363 2.47116 64.1298 1.7476 63.4062C1.02404 62.6827 0.617554 61.7013 0.617554 60.6781C0.617554 59.6548 1.02404 58.6734 1.7476 57.9499C2.47116 57.2263 3.45252 56.8198 4.47578 56.8198H19.6657C20.6889 56.8198 21.6703 57.2263 22.3938 57.9499C23.1174 58.6734 23.5239 59.6548 23.5239 60.6781C23.5239 61.7013 23.1174 62.6827 22.3938 63.4062C21.6703 64.1298 20.6889 64.5363 19.6657 64.5363Z" fill="white"/>
<path d="M60.7088 22.0048C60.205 22.0089 59.7054 21.9126 59.2391 21.7217C58.7729 21.5307 58.3493 21.2489 57.993 20.8927C57.6368 20.5364 57.355 20.1128 57.164 19.6466C56.9731 19.1804 56.8769 18.6808 56.8809 18.177V4.59722C56.8334 4.06383 56.8975 3.5264 57.0691 3.01912C57.2407 2.51184 57.5159 2.04584 57.8774 1.65075C58.2389 1.25567 58.6787 0.940158 59.1687 0.724303C59.6588 0.508447 60.1885 0.396973 60.724 0.396973C61.2595 0.396973 61.7891 0.508447 62.2792 0.724303C62.7692 0.940158 63.209 1.25567 63.5705 1.65075C63.932 2.04584 64.2073 2.51184 64.3788 3.01912C64.5504 3.5264 64.6145 4.06383 64.567 4.59722V18.2985C64.5353 19.2978 64.1139 20.245 63.3929 20.9376C62.6719 21.6302 61.7085 22.0133 60.7088 22.0048V22.0048Z" fill="white"/>
<path d="M90.8455 34.4606C90.3423 34.465 89.8435 34.3676 89.3789 34.1745C88.9143 33.9813 88.4935 33.6963 88.1417 33.3366C87.7825 32.9807 87.4974 32.5572 87.3029 32.0905C87.1083 31.6238 87.0082 31.1232 87.0082 30.6176C87.0082 30.112 87.1083 29.6114 87.3029 29.1447C87.4974 28.678 87.7825 28.2545 88.1417 27.8986L97.7113 18.2986C98.4341 17.5807 99.4115 17.1777 100.43 17.1777C101.449 17.1777 102.426 17.5807 103.149 18.2986C103.508 18.6545 103.794 19.078 103.988 19.5447C104.183 20.0114 104.283 20.512 104.283 21.0176C104.283 21.5232 104.183 22.0238 103.988 22.4905C103.794 22.9572 103.508 23.3807 103.149 23.7366L93.5796 33.3366C93.2212 33.6959 92.7948 33.9802 92.3255 34.1732C91.8561 34.3662 91.353 34.4639 90.8455 34.4606V34.4606Z" fill="white"/>
<path d="M116.881 64.5363L103.18 64.5363C102.156 64.5363 101.175 64.1298 100.451 63.4062C99.7279 62.6827 99.3214 61.7013 99.3214 60.6781C99.3214 59.6548 99.7279 58.6734 100.451 57.9499C101.175 57.2263 102.156 56.8198 103.18 56.8198H116.881C117.904 56.8198 118.886 57.2263 119.609 57.9499C120.333 58.6734 120.739 59.6548 120.739 60.6781C120.739 61.7013 120.333 62.6827 119.609 63.4062C118.886 64.1298 117.904 64.5363 116.881 64.5363Z" fill="white"/>
<path d="M31.9694 34.4607C31.0426 34.4623 30.1467 34.1277 29.4479 33.5189L18.4808 23.9189C18.0718 23.5943 17.733 23.1901 17.4848 22.7307C17.2367 22.2713 17.0843 21.7664 17.037 21.2464C16.9897 20.7264 17.0484 20.2022 17.2096 19.7056C17.3708 19.209 17.6311 18.7503 17.9748 18.3572C18.3185 17.9642 18.7383 17.6449 19.209 17.4189C19.6797 17.1928 20.1913 17.0647 20.7129 17.0422C21.2346 17.0196 21.7554 17.1032 22.2437 17.2879C22.7321 17.4725 23.178 17.7544 23.5542 18.1163L34.5213 27.7163C35.2897 28.3898 35.7597 29.3405 35.828 30.36C35.8964 31.3794 35.5575 32.3844 34.8859 33.1543C34.52 33.5662 34.0708 33.8957 33.568 34.1209C33.0652 34.3461 32.5203 34.4619 31.9694 34.4607V34.4607Z" fill="white"/>
</g>
<defs>
<clipPath id="clip0_1930_26">
<rect width="120" height="120" fill="white" transform="translate(0.739014 0.73877)"/>
</clipPath>
</defs>
</svg>
