<svg width="646" height="276" viewBox="0 0 646 276" fill="none" xmlns="http://www.w3.org/2000/svg">
<g opacity="0.7" clip-path="url(#clip0_1930_39)">
<path d="M395.776 274.727C382.637 274.689 375.84 267.947 370.391 262.534C365.701 257.881 362.321 254.519 355.068 254.5C347.816 254.481 344.398 257.805 339.689 262.439C334.202 267.814 327.348 274.518 314.209 274.461C301.071 274.423 294.273 267.681 288.824 262.268C284.134 257.615 280.755 254.253 273.502 254.234C266.249 254.215 262.832 257.539 258.123 262.173C252.636 267.548 245.782 274.252 232.643 274.195C219.504 274.138 212.707 267.415 207.258 262.002C202.568 257.349 199.188 253.987 191.936 253.968C184.683 253.949 181.265 257.273 176.556 261.907C171.069 267.282 164.215 273.987 151.076 273.93C137.938 273.873 131.14 267.149 125.691 261.736C121.002 257.083 117.622 253.721 110.369 253.702C103.116 253.684 99.6987 257.007 94.99 261.641C89.5029 267.016 82.6487 273.721 69.51 273.664C56.3713 273.626 49.5741 266.883 44.1249 261.47C39.4352 256.817 36.0556 253.456 28.8027 253.437C21.5498 253.418 18.1323 256.741 13.4236 261.375" stroke="white" stroke-width="3" stroke-miterlimit="10" stroke-linecap="round"/>
<path d="M558.149 239.382C545.01 239.344 538.213 232.602 532.764 227.189C528.074 222.536 524.695 219.174 517.442 219.155C510.189 219.136 506.771 222.46 502.063 227.094C496.575 232.469 489.721 239.173 476.583 239.116C463.444 239.078 456.647 232.336 451.197 226.923C446.508 222.27 443.128 218.908 435.875 218.889C428.622 218.87 425.205 222.194 420.496 226.828C415.009 232.203 408.155 238.907 395.016 238.85C381.877 238.793 375.08 232.07 369.631 226.657C364.941 222.004 361.562 218.642 354.309 218.623C347.056 218.604 343.638 221.928 338.93 226.562C333.443 231.937 326.588 238.641 313.45 238.584C300.311 238.546 293.514 231.804 288.065 226.391C283.375 221.738 279.995 218.376 272.742 218.357C265.49 218.338 262.072 221.662 257.363 226.296C251.876 231.671 245.022 238.376 231.883 238.319C218.745 238.281 211.947 231.538 206.498 226.125C201.809 221.472 198.429 218.11 191.176 218.091C183.923 218.072 180.506 221.396 175.797 226.03C170.31 231.405 163.456 238.11 150.317 238.053C137.178 237.996 130.381 231.272 124.932 225.859C120.242 221.206 116.863 217.845 109.61 217.826C102.357 217.807 98.9392 221.13 94.2305 225.764C88.7434 231.139 81.8892 237.844 68.7505 237.787C55.6117 237.73 48.8145 231.006 43.3654 225.593C38.6757 220.94 35.2961 217.579 28.0432 217.56C20.7903 217.541 17.3727 220.864 12.6641 225.499" stroke="white" stroke-width="3" stroke-miterlimit="10" stroke-linecap="round"/>
<path d="M479.639 202.214C466.501 202.176 459.704 195.434 454.254 190.021C449.565 185.367 446.185 182.006 438.932 181.987C431.679 181.968 428.262 185.291 423.553 189.926C418.066 195.301 411.212 202.005 398.073 201.948C384.934 201.91 378.137 195.168 372.688 189.755C367.998 185.102 364.619 181.74 357.366 181.721C350.113 181.702 346.695 185.026 341.987 189.66C336.5 195.035 329.645 201.739 316.507 201.682C303.368 201.625 296.571 194.902 291.122 189.489C286.432 184.836 283.052 181.474 275.799 181.455C268.546 181.436 265.129 184.76 260.42 189.394C254.933 194.769 248.079 201.473 234.94 201.416C221.801 201.378 215.004 194.636 209.555 189.223C204.865 184.57 201.486 181.208 194.233 181.189C186.98 181.17 183.562 184.494 178.854 189.128C173.367 194.503 166.513 201.207 153.374 201.15C140.235 201.112 133.438 194.37 127.989 188.957C123.299 184.304 119.919 180.942 112.667 180.923C105.414 180.904 101.996 184.228 97.2874 188.862C91.8003 194.237 84.9461 200.941 71.8074 200.884C58.6686 200.827 51.8714 194.104 46.4223 188.691C41.7326 184.038 38.353 180.676 31.1001 180.657C23.8472 180.638 20.4296 183.962 15.7209 188.596" stroke="white" stroke-width="3" stroke-miterlimit="10" stroke-linecap="round"/>
<path d="M327.557 165.672C314.418 165.672 307.602 158.949 302.134 153.555C297.425 148.921 294.027 145.578 286.774 145.578C279.521 145.578 276.122 148.921 271.413 153.555C265.945 158.949 259.129 165.672 245.99 165.672C232.852 165.672 226.035 158.949 220.567 153.555C215.859 148.921 212.46 145.578 205.207 145.578C197.954 145.578 194.556 148.921 189.847 153.555C184.379 158.949 177.563 165.672 164.424 165.672C151.285 165.672 144.469 158.949 139.001 153.555C134.292 148.921 130.894 145.578 123.641 145.578C116.388 145.578 112.989 148.921 108.281 153.555C102.812 158.949 95.9963 165.672 82.8576 165.672C69.7188 165.672 62.9026 158.949 57.4345 153.555C52.7258 148.921 49.3272 145.578 42.0743 145.578C34.8215 145.578 31.4229 148.921 26.7142 153.555C21.2461 158.949 14.4299 165.672 1.29114 165.672" stroke="white" stroke-width="3" stroke-miterlimit="10" stroke-linecap="round"/>
<path d="M558.187 130.061C545.048 130.061 538.232 123.338 532.764 117.944C528.055 113.309 524.657 109.967 517.404 109.967C510.151 109.967 506.752 113.309 502.044 117.944C496.576 123.338 489.759 130.061 476.621 130.061C463.482 130.061 456.666 123.338 451.198 117.944C446.489 113.309 443.09 109.967 435.837 109.967C428.585 109.967 425.186 113.309 420.477 117.944C415.009 123.338 408.193 130.061 395.054 130.061C381.916 130.061 375.099 123.338 369.631 117.944C364.922 113.309 361.524 109.967 354.271 109.967C347.018 109.967 343.62 113.309 338.911 117.944C333.443 123.338 326.627 130.061 313.488 130.061C300.349 130.061 293.533 123.338 288.065 117.944C283.356 113.309 279.957 109.967 272.705 109.967C265.452 109.967 262.053 113.309 257.344 117.944C251.876 123.338 245.06 130.061 231.921 130.061C218.783 130.061 211.966 123.338 206.498 117.944C201.79 113.309 198.391 109.967 191.138 109.967C183.885 109.967 180.487 113.309 175.778 117.944C170.31 123.338 163.494 130.061 150.355 130.061C137.216 130.061 130.4 123.338 124.932 117.944C120.223 113.309 116.825 109.967 109.572 109.967C102.319 109.967 98.9202 113.309 94.2116 117.944C88.7434 123.338 81.9272 130.061 68.7885 130.061C55.6498 130.061 48.8336 123.338 43.3655 117.944C38.6568 113.309 35.2582 109.967 28.0053 109.967C20.7524 109.967 17.3538 113.309 12.6451 117.944" stroke="white" stroke-width="3" stroke-miterlimit="10" stroke-linecap="round"/>
<path d="M644.728 94.1654C631.589 94.1654 624.773 87.4421 619.305 82.0482C614.596 77.414 611.198 74.0713 603.945 74.0713C596.692 74.0713 593.293 77.414 588.585 82.0482C583.117 87.4421 576.3 94.1654 563.162 94.1654C550.023 94.1654 543.207 87.4421 537.739 82.0482C533.03 77.414 529.631 74.0713 522.378 74.0713C515.126 74.0713 511.727 77.414 507.018 82.0482C501.55 87.4421 494.734 94.1654 481.595 94.1654C468.456 94.1654 461.64 87.4421 456.172 82.0482C451.463 77.414 448.065 74.0713 440.812 74.0713C433.559 74.0713 430.16 77.414 425.452 82.0482C419.984 87.4421 413.167 94.1654 400.029 94.1654C386.89 94.1654 380.074 87.4421 374.606 82.0482C369.897 77.414 366.498 74.0713 359.246 74.0713C351.993 74.0713 348.594 77.414 343.885 82.0482C338.417 87.4421 331.601 94.1654 318.462 94.1654C305.324 94.1654 298.507 87.4421 293.039 82.0482C288.331 77.414 284.932 74.0713 277.679 74.0713C270.426 74.0713 267.028 77.414 262.319 82.0482C256.851 87.4421 250.035 94.1654 236.896 94.1654C223.757 94.1654 216.941 87.4421 211.473 82.0482C206.764 77.414 203.366 74.0713 196.113 74.0713C188.86 74.0713 185.461 77.414 180.752 82.0482C175.284 87.4421 168.468 94.1654 155.329 94.1654C142.191 94.1654 135.375 87.4421 129.906 82.0482C125.198 77.414 121.799 74.0713 114.546 74.0713C107.293 74.0713 103.895 77.414 99.1861 82.0482C93.7179 87.4421 86.9017 94.1654 73.763 94.1654C60.6243 94.1654 53.8081 87.4421 48.3399 82.0482C43.6313 77.414 40.2327 74.0713 32.9798 74.0713C25.7269 74.0713 22.3283 77.414 17.6196 82.0482" stroke="white" stroke-width="3" stroke-miterlimit="10" stroke-linecap="round"/>
<path d="M558.092 57.2621C544.953 57.2621 538.137 50.5387 532.669 45.1448C527.96 40.5107 524.562 37.168 517.309 37.168C510.056 37.168 506.657 40.5107 501.949 45.1448C496.481 50.5387 489.664 57.2621 476.526 57.2621C463.387 57.2621 456.571 50.5387 451.103 45.1448C446.394 40.5107 442.995 37.168 435.742 37.168C428.49 37.168 425.091 40.5107 420.382 45.1448C414.914 50.5387 408.098 57.2621 394.959 57.2621C381.821 57.2621 375.004 50.5387 369.536 45.1448C364.828 40.5107 361.429 37.168 354.176 37.168C346.923 37.168 343.525 40.5107 338.816 45.1448C333.348 50.5387 326.532 57.2621 313.393 57.2621C300.254 57.2621 293.438 50.5387 287.97 45.1448C283.261 40.5107 279.862 37.168 272.61 37.168C265.357 37.168 261.958 40.5107 257.249 45.1448C251.781 50.5387 244.965 57.2621 231.826 57.2621C218.688 57.2621 211.871 50.5387 206.403 45.1448C201.695 40.5107 198.296 37.168 191.043 37.168C183.79 37.168 180.392 40.5107 175.683 45.1448C170.215 50.5387 163.399 57.2621 150.26 57.2621C137.121 57.2621 130.305 50.5387 124.837 45.1448C120.128 40.5107 116.73 37.168 109.477 37.168C102.224 37.168 98.8253 40.5107 94.1166 45.1448C88.6484 50.5387 81.8323 57.2621 68.6935 57.2621C55.5548 57.2621 48.7386 50.5387 43.2705 45.1448C38.5618 40.5107 35.1632 37.168 27.9103 37.168C20.6574 37.168 17.2588 40.5107 12.5502 45.1448" stroke="white" stroke-width="3" stroke-miterlimit="10" stroke-linecap="round"/>
<path d="M472.462 21.3666C459.324 21.3666 452.508 14.6432 447.039 9.24934C442.331 4.61515 438.932 1.27246 431.679 1.27246C424.426 1.27246 421.028 4.61515 416.319 9.24934C410.851 14.6432 404.035 21.3666 390.896 21.3666C377.757 21.3666 370.941 14.6432 365.473 9.24934C360.764 4.61515 357.366 1.27246 350.113 1.27246C342.86 1.27246 339.461 4.61515 334.753 9.24934C329.285 14.6432 322.468 21.3666 309.33 21.3666C296.191 21.3666 289.375 14.6432 283.907 9.24934C279.198 4.61515 275.799 1.27246 268.546 1.27246C261.294 1.27246 257.895 4.61515 253.186 9.24934C247.718 14.6432 240.902 21.3666 227.763 21.3666C214.624 21.3666 207.808 14.6432 202.34 9.24934C197.631 4.61515 194.233 1.27246 186.98 1.27246C179.727 1.27246 176.329 4.61515 171.62 9.24934C166.152 14.6432 159.336 21.3666 146.197 21.3666C133.058 21.3666 126.242 14.6432 120.774 9.24934C116.065 4.61515 112.666 1.27246 105.414 1.27246C98.1607 1.27246 94.7621 4.61515 90.0534 9.24934C84.5853 14.6432 77.7691 21.3666 64.6304 21.3666C51.4916 21.3666 44.6755 14.6432 39.2073 9.24934C34.4797 4.61515 31.0811 1.27246 23.8282 1.27246C16.5753 1.27246 13.1577 4.61515 8.46802 9.24934" stroke="white" stroke-width="3" stroke-miterlimit="10" stroke-linecap="round"/>
</g>
<defs>
<clipPath id="clip0_1930_39">
<rect width="646" height="276" fill="white"/>
</clipPath>
</defs>
</svg>
